# xmcd CD database file
#
# Track frame offsets:
#	158
#	14958
#	31496
#	49126
#	63908
#	77035
#	98080
#	113181
#	133722
#	154133
#	172998
#
# Disc length: 2466 seconds
#
# Revision: 0
# Processed by: cddbd v1.5.1PL2 Copyright (c) Steve Scherf et al.
# Submitted via: CDex 1.50beta10
#
DISCID=8f09a00b
DTITLE=Stina - Masquerade
DYEAR=2006
DGENRE=Jazz
TTITLE0=Desperado
TTITLE1=The wind bebeath my wings
TTITLE2=This Masquerade
TTITLE3=Where all is said and done
TTITLE4=Nature boy
TTITLE5=Autumn leaves
TTITLE6=Yesterday
TTITLE7=You and I 
TTITLE8=For once in my life
TTITLE9=Phone Call
TTITLE10=Hallelugah I love her so
EXTD=YEAR: 2006
EXTT0=
EXTT1=
EXTT2=
EXTT3=
EXTT4=
EXTT5=
EXTT6=
EXTT7=
EXTT8=
EXTT9=
EXTT10=
PLAYORDER=
